<svg width="32" height="32" viewBox="0 0 32 32" fill="none" xmlns="http://www.w3.org/2000/svg">
<path d="M11.75 10.7945V11.5445C12.0144 11.5445 12.2594 11.4053 12.3946 11.178L11.75 10.7945ZM13.4125 8V7.25C13.1481 7.25 12.9031 7.38927 12.7679 7.61654L13.4125 8ZM19.5875 8L20.2321 7.61654C20.0969 7.38927 19.8519 7.25 19.5875 7.25V8ZM21.25 10.7945L20.6054 11.178C20.7406 11.4053 20.9856 11.5445 21.25 11.5445V10.7945ZM7.75 22.6712V13.1233H6.25V22.6712H7.75ZM9.375 11.5445H11.75V10.0445H9.375V11.5445ZM12.3946 11.178L14.0571 8.38346L12.7679 7.61654L11.1054 10.4111L12.3946 11.178ZM13.4125 8.75H19.5875V7.25H13.4125V8.75ZM18.9429 8.38346L20.6054 11.178L21.8946 10.4111L20.2321 7.61654L18.9429 8.38346ZM21.25 11.5445H23.625V10.0445H21.25V11.5445ZM25.25 13.1233V22.6712H26.75V13.1233H25.25ZM25.25 22.6712C25.25 23.5293 24.5364 24.25 23.625 24.25V25.75C25.3369 25.75 26.75 24.3854 26.75 22.6712H25.25ZM23.625 11.5445C24.5364 11.5445 25.25 12.2652 25.25 13.1233H26.75C26.75 11.4091 25.3369 10.0445 23.625 10.0445V11.5445ZM7.75 13.1233C7.75 12.2652 8.46357 11.5445 9.375 11.5445V10.0445C7.66308 10.0445 6.25 11.4091 6.25 13.1233H7.75ZM9.375 24.25C8.46357 24.25 7.75 23.5293 7.75 22.6712H6.25C6.25 24.3854 7.66308 25.75 9.375 25.75V24.25ZM19.3125 17.3151C19.3125 18.8162 18.0673 20.0582 16.5 20.0582V21.5582C18.8678 21.5582 20.8125 19.6723 20.8125 17.3151H19.3125ZM16.5 20.0582C14.9327 20.0582 13.6875 18.8162 13.6875 17.3151H12.1875C12.1875 19.6723 14.1322 21.5582 16.5 21.5582V20.0582ZM13.6875 17.3151C13.6875 15.8139 14.9327 14.5719 16.5 14.5719V13.0719C14.1322 13.0719 12.1875 14.9578 12.1875 17.3151H13.6875ZM16.5 14.5719C18.0673 14.5719 19.3125 15.8139 19.3125 17.3151H20.8125C20.8125 14.9578 18.8678 13.0719 16.5 13.0719V14.5719ZM23.625 24.25H9.375V25.75H23.625V24.25Z" fill="#8E8F90"/>
</svg>
