<svg width="38" height="16" viewBox="0 0 38 16" fill="none" xmlns="http://www.w3.org/2000/svg">
<path d="M2.98125 9.07042V13.1268H10.4059V15.7183H0V0.28169H10.216V2.87324H2.98125V6.47887H9.85523V9.07042H2.98125Z" fill="#5566FF"/>
<path d="M11.5491 0.28169H24.0438V2.96714H19.2966V15.7183H16.3153V2.96714H11.5491V0.28169Z" fill="#5566FF"/>
<path d="M31.4868 16C30.2589 16 29.1259 15.7308 28.0878 15.1925C27.0624 14.6667 26.2396 13.903 25.6193 12.9014C25.0116 11.8873 24.7078 10.6917 24.7078 9.31455V6.68545C24.7078 5.32081 25.0116 4.13145 25.6193 3.11737C26.2396 2.10329 27.0624 1.33333 28.0878 0.807511C29.1259 0.26917 30.2589 0 31.4868 0C33.1578 0 34.563 0.456964 35.7023 1.37089C36.8543 2.2723 37.6202 3.52426 38 5.12676L35.1707 5.93427C34.9048 4.87011 34.4744 4.07512 33.8794 3.54929C33.2844 3.01095 32.4869 2.74178 31.4868 2.74178C30.7906 2.74178 30.1513 2.89828 29.5689 3.21127C28.9993 3.51174 28.5435 3.9687 28.2017 4.58216C27.8599 5.19562 27.689 5.93427 27.689 6.79812V9.20188C27.689 10.0657 27.8599 10.8044 28.2017 11.4178C28.5435 12.0313 28.9993 12.4945 29.5689 12.8075C30.1513 13.108 30.7906 13.2582 31.4868 13.2582C32.4869 13.2582 33.2844 12.9953 33.8794 12.4695C34.4744 11.9311 34.9048 11.1299 35.1707 10.0657L38 10.8732C37.6202 12.4757 36.8543 13.7277 35.7023 14.6291C34.563 15.543 33.1578 16 31.4868 16Z" fill="#5566FF"/>
</svg>
