<svg width="56" height="56" viewBox="0 0 56 56" fill="none" xmlns="http://www.w3.org/2000/svg">
<ellipse cx="28" cy="28.0001" rx="28" ry="28.0001" fill="#FFF8F6"/>
<path d="M11.9813 29.0704V33.1268H19.4059V35.7183H9V20.2817H19.216V22.8732H11.9813V26.4789H18.8552V29.0704H11.9813Z" fill="#FF8165"/>
<path d="M20.5491 20.2817H33.0438V22.9671H28.2966V35.7183H25.3153V22.9671H20.5491V20.2817Z" fill="#FF8165"/>
<path d="M40.4868 36C39.2589 36 38.1259 35.7308 37.0878 35.1925C36.0624 34.6667 35.2396 33.903 34.6193 32.9014C34.0116 31.8873 33.7078 30.6917 33.7078 29.3146V26.6854C33.7078 25.3208 34.0116 24.1315 34.6193 23.1174C35.2396 22.1033 36.0624 21.3333 37.0878 20.8075C38.1259 20.2692 39.2589 20 40.4868 20C42.1578 20 43.563 20.457 44.7023 21.3709C45.8543 22.2723 46.6202 23.5243 47 25.1268L44.1707 25.9343C43.9048 24.8701 43.4744 24.0751 42.8794 23.5493C42.2844 23.011 41.4869 22.7418 40.4868 22.7418C39.7906 22.7418 39.1513 22.8983 38.5689 23.2113C37.9993 23.5117 37.5435 23.9687 37.2017 24.5822C36.8599 25.1956 36.689 25.9343 36.689 26.7981V29.2019C36.689 30.0657 36.8599 30.8044 37.2017 31.4178C37.5435 32.0313 37.9993 32.4945 38.5689 32.8075C39.1513 33.108 39.7906 33.2582 40.4868 33.2582C41.4869 33.2582 42.2844 32.9953 42.8794 32.4695C43.4744 31.9311 43.9048 31.1299 44.1707 30.0657L47 30.8732C46.6202 32.4757 45.8543 33.7277 44.7023 34.6291C43.563 35.543 42.1578 36 40.4868 36Z" fill="#FF8165"/>
</svg>
