<svg width="56" height="56" viewBox="0 0 56 56" fill="none" xmlns="http://www.w3.org/2000/svg">
<circle cx="28" cy="28" r="28" fill="#FFF8F6"/>
<path fill-rule="evenodd" clip-rule="evenodd" d="M21.9334 11.2C19.0983 11.2 16.8 13.4982 16.8 16.3333V17.2666C16.8 19.7355 18.543 21.7973 20.8656 22.2887L20.5553 43.3177C20.5432 44.1327 21.2007 44.7999 22.0158 44.7999C22.831 44.7999 23.4884 44.1327 23.4764 43.3177L23.1655 22.2511C25.4055 21.6993 27.0667 19.6769 27.0667 17.2666V16.3333C27.0667 13.4982 24.7684 11.2 21.9334 11.2ZM37.7176 13.1764C37.1542 13.1764 36.6952 13.6287 36.6868 14.1921L36.257 43.3177C36.245 44.1327 36.9024 44.7999 37.7176 44.7999C38.5328 44.7999 39.1902 44.1327 39.1782 43.3177L38.7484 14.1921C38.7401 13.6287 38.281 13.1764 37.7176 13.1764ZM32.1851 14.1921C32.1934 13.6287 32.6524 13.1764 33.2158 13.1764C33.7792 13.1764 34.2383 13.6287 34.2466 14.1921L34.6764 43.3177C34.6884 44.1327 34.031 44.7999 33.2158 44.7999C32.4007 44.7999 31.7432 44.1327 31.7553 43.3177L32.1851 14.1921Z" fill="#FF8165"/>
</svg>
