<svg width="24" height="36" viewBox="0 0 24 36" fill="none" xmlns="http://www.w3.org/2000/svg">
<path fill-rule="evenodd" clip-rule="evenodd" d="M5.5 0C2.46243 0 0 2.46243 0 5.5V6.5C0 9.14526 1.86745 11.3544 4.35593 11.8808L4.02344 34.4118C4.01055 35.2851 4.71494 36 5.58833 36C6.46173 36 7.16612 35.2851 7.15323 34.4118L6.82015 11.8405C9.22012 11.2493 11 9.08249 11 6.5V5.5C11 2.46243 8.53757 0 5.5 0ZM22.4117 2.11765C21.808 2.11765 21.3162 2.60228 21.3073 3.20587L20.8468 34.4118C20.8339 35.2851 21.5383 36 22.4117 36C23.2851 36 23.9894 35.2851 23.9766 34.4118L23.5161 3.20587C23.5072 2.60228 23.0153 2.11765 22.4117 2.11765ZM16.4839 3.20587C16.4928 2.60228 16.9847 2.11765 17.5883 2.11765C18.192 2.11765 18.6838 2.60228 18.6927 3.20587L19.1532 34.4118C19.1661 35.2851 18.4617 36 17.5883 36C16.7149 36 16.0105 35.2851 16.0234 34.4118L16.4839 3.20587Z" fill="#5566FF"/>
</svg>
