<svg width="236" height="236" viewBox="0 0 236 236" fill="none" xmlns="http://www.w3.org/2000/svg">
<g clip-path="url(#clip0_112_1267)">
<path d="M17.7478 162.316H18.4955C21.519 163.644 25.1278 164.907 29.3867 166.072C29.3867 166.331 29.5167 166.687 29.7768 167.205L28.2813 173.552C32.5403 177.696 34.6535 180.319 34.6535 181.42V182.164C34.6535 182.65 34.3934 182.909 33.9057 182.909C32.5728 182.909 30.4596 180.902 27.5336 176.919H27.1434C26.7208 176.919 25.973 178.797 24.9002 182.521C24.445 182.747 23.9574 182.877 23.4047 182.877H23.0145L22.6569 181.031V180.286L26.3957 168.339V167.95C20.1211 166.59 17 165.489 17 164.583V163.093C17.065 162.575 17.3251 162.349 17.7478 162.349V162.316ZM41.4158 164.939C42.4236 166.428 42.9113 167.918 42.9113 169.44V172.451C42.9113 173.681 43.0413 175.559 43.3014 178.052H42.9113L43.3014 178.797V179.93C43.3014 180.286 42.9113 180.643 42.1635 181.063H41.4158C41.0582 181.063 40.7005 180.675 40.2779 179.93V176.919L39.8878 174.296H33.1255C31.3374 174.296 30.3295 173.681 30.1345 172.451C30.297 171.706 30.8172 171.188 31.63 170.961C33.8732 171.447 36.019 171.706 38.0021 171.706L39.8553 171.318V170.961C39.8553 169.699 39.7252 167.853 39.4651 165.36L41.3508 164.971L41.4158 164.939ZM44.7969 165.327H46.2924C47.0727 165.327 47.7229 168.08 48.1781 173.552C47.918 174.037 47.7879 174.393 47.7879 174.685L48.5357 180.286L47.3978 181.031H46.6501C45.3821 180.61 44.7644 176.239 44.7644 167.95C44.5368 167.95 44.4068 167.464 44.4068 166.461C44.6344 165.975 44.7644 165.619 44.7644 165.327H44.7969Z" fill="#1D1D1B"/>
<path d="M100.846 157.46H101.236C109.234 157.46 113.233 158.075 113.233 159.337L113.623 160.827C113.135 162.802 112.875 164.291 112.875 165.295C116.874 168.371 118.889 170.476 118.889 171.641C118.629 172.127 118.499 172.483 118.499 172.775H117.361C116.549 172.775 114.663 171.415 111.737 168.662C111.217 168.792 110.079 170.929 108.356 175.009H106.503V173.163C108.486 168.112 109.494 165.101 109.494 164.194C110.046 164.194 110.437 163.061 110.632 160.827C110.144 160.568 109.786 160.438 109.494 160.438C108.193 160.438 106.048 160.309 103.122 160.05C102.146 160.309 101.268 160.438 100.488 160.438L99.7405 159.305V158.56C99.7405 158.204 100.131 157.848 100.878 157.427L100.846 157.46ZM121.1 178.376C121.588 179.186 121.848 179.833 121.848 180.254C121.49 181.484 120.222 182.1 118.109 182.1C117.557 182.1 117.069 181.97 116.614 181.743C116.126 181.97 115.736 182.1 115.476 182.1V183.233C115.476 184.042 115.736 185.791 116.224 188.446L115.086 189.191H113.948C113.363 189.191 112.712 186.827 112.062 182.067C111.802 182.067 111.412 181.938 110.924 181.711C110.664 181.711 110.534 181.841 110.534 182.067C106.275 182.067 104.162 181.323 104.162 179.833L105.657 178.7H116.549L121.035 178.311L121.1 178.376Z" fill="#1D1D1B"/>
<path d="M128.675 174.296H129.033C129.781 174.296 130.561 177.048 131.309 182.52L132.057 182.909H132.447C133.715 182.909 135.568 182.779 138.071 182.52L138.461 183.265V184.755C138.461 185.111 138.071 185.499 137.323 185.888C131.666 186.147 128.155 186.276 126.822 186.276C125.327 186.017 124.579 185.661 124.579 185.143V184.01C124.579 183.654 124.969 183.298 125.717 182.877H128.35V182.488C127.863 178.279 127.603 175.786 127.603 175.009L128.741 174.264L128.675 174.296ZM126.042 161.215C134.3 161.798 138.429 162.413 138.429 163.093C138.429 164.583 138.559 165.327 138.819 165.327C138.559 166.687 138.429 167.691 138.429 168.339C138.429 171.576 138.689 174.944 139.177 178.408L138.429 178.797H136.933C136.186 178.635 135.795 177.664 135.795 175.818V171.317C135.795 166.849 135.405 164.615 134.658 164.615H131.276C127.017 164.453 124.904 163.838 124.904 162.737V162.349C124.904 161.992 125.294 161.636 126.042 161.215Z" fill="#1D1D1B"/>
<path d="M164.47 152.603C166.843 152.603 168.339 154.61 168.957 158.593C168.957 162.057 167.201 164.421 163.69 165.716H163.332V168.339C163.332 169.245 163.722 169.99 164.47 170.573L165.218 170.184H167.851C168.599 170.184 168.989 170.67 168.989 171.674C168.989 173.163 165.12 173.908 157.35 173.908H156.602C154.847 173.519 153.969 172.904 153.969 172.062C154.067 171.382 154.684 170.897 155.855 170.573L156.602 170.961C157.968 170.702 159.073 170.573 159.984 170.573H160.731V169.083C160.731 167.011 159.593 165.651 157.35 164.971C155.757 164.971 154.652 163.352 153.969 160.114C154.587 155.387 156.082 153.024 158.456 153.024L164.47 152.635V152.603ZM156.57 160.471C157.22 162.219 158.976 163.093 161.837 163.093C164.828 162.511 166.323 161.151 166.323 158.981V157.136C165.64 155.873 164.633 155.258 163.332 155.258C160.146 155.258 157.87 156.132 156.57 157.88V160.503V160.471ZM159.951 176.174L162.227 176.53C163.527 176.304 164.795 176.174 165.966 176.174H166.713C167.526 176.174 168.046 177.923 168.209 181.42C168.209 183.459 166.096 184.722 161.837 185.143V185.888C161.837 186.374 162.227 186.633 162.975 186.633C164.242 186.633 166.746 186.374 170.485 185.888L171.232 187.021V187.766C171.232 188.867 168.241 189.611 162.227 190C159.951 190 158.846 188.51 158.846 185.499V184.01C158.846 183.006 160.959 182.261 165.218 181.743L165.608 180.999C165.608 179.736 165.348 179.121 164.86 179.121C164.307 179.121 162.942 179.25 160.731 179.509C159.593 179.024 158.976 178.538 158.846 178.02V177.275C158.846 176.919 159.236 176.53 159.984 176.142L159.951 176.174Z" fill="#1D1D1B"/>
<path d="M183.294 161.572C185.05 163.029 185.895 166.525 185.895 172.03C185.895 172.904 183.391 173.908 178.385 175.009L178.027 175.753C178.157 178.732 178.515 180.222 179.165 180.222H181.018C182.286 180.222 184.139 180.092 186.643 179.833C186.643 180.092 186.773 180.481 187.033 180.966C187.033 182.715 184.789 183.589 180.27 183.589C177.019 183.589 175.394 182.1 175.394 179.121V173.519C175.394 172.742 177.767 171.997 182.514 171.285C182.579 170.799 182.839 170.54 183.261 170.54C183.261 170.152 182.871 168.177 182.124 164.55H175.004C174.646 164.55 174.288 164.162 173.866 163.417V162.672C173.931 162.187 174.191 161.928 174.613 161.928C179.165 161.669 182.059 161.539 183.261 161.539L183.294 161.572ZM194.9 166.04H195.29C196.623 166.04 197.501 171.026 197.924 180.999L196.786 181.743H196.038C195.356 181.743 194.868 179.995 194.543 176.498C194.023 176.498 193.795 176.369 193.795 176.11L189.666 176.854C186.935 176.53 185.537 176.045 185.537 175.365V174.232C185.602 173.714 185.862 173.487 186.285 173.487C189.373 173.746 190.999 173.875 191.162 173.875C193.437 173.681 194.543 173.293 194.543 172.742C194.023 168.986 193.795 166.979 193.795 166.752L194.933 166.007L194.9 166.04ZM200.525 163.806H201.273C202.443 163.806 203.061 167.918 203.158 176.142C203.483 176.142 203.743 177.146 203.906 179.153C203.516 180.157 203.158 180.643 202.768 180.643H202.02C200.915 180.643 200.167 175.171 199.744 164.194L200.492 163.806H200.525Z" fill="#1D1D1B"/>
<path d="M210.343 158.204H210.733C214.244 158.204 216 160.212 216 164.194C216 165.91 214.634 167.918 211.871 170.184V171.317C212.359 173.746 212.619 175.106 212.619 175.43C212.619 176.725 212.229 177.469 211.481 177.664H209.985L208.848 173.552V170.929C208.848 169.18 210.083 167.173 212.586 164.939L212.976 163.093C212.814 161.831 212.066 161.215 210.733 161.215C209.108 161.733 207.97 161.96 207.352 161.96L206.604 160.827V159.694C206.604 159.014 207.84 158.528 210.343 158.204ZM211.481 179.898H211.871C212.229 179.898 212.846 180.513 213.757 181.776V182.52C213.757 182.909 213.269 183.427 212.261 184.01C211.123 183.524 210.506 183.038 210.376 182.52V181.031C210.376 180.675 210.766 180.319 211.513 179.898H211.481Z" fill="#1D1D1B"/>
<path d="M147.402 137.935L143.663 136.77L140.997 134.892L138.526 133.564L135.047 132.528L129.651 129.193L127.082 127.995L123.571 127.218L121.165 125.016L118.012 124.466L114.403 122.912L112.355 120.904L109.136 120.062L103.934 117.116L100.488 116.565L97.8874 114.558L94.4412 113.91L89.1094 110.931L85.6632 109.895L82.9323 108.179L80.559 106.334L77.7631 105.783L74.4794 104.65L71.3909 102.902L69.1151 101.088L66.2542 101.056L66.3192 97.2354L70.4806 97.3325L73.5366 99.7609L76.0725 101.218L78.7709 102.125L82.1846 102.772L85.1431 105.071L87.4839 106.528L90.7024 107.467L96.0668 110.446L99.4804 110.964L102.049 112.971L105.43 113.619L110.859 116.662L114.24 117.44L116.776 119.9L119.215 120.872L122.888 121.422L125.392 123.721L128.545 124.466L131.439 125.858L136.868 129.193L140.184 130.132L143.013 131.686L145.581 133.467L148.442 134.276L147.402 137.935Z" fill="#1D1D1B"/>
<path d="M135.698 129.97L132.707 127.995L129.456 127.445L126.562 125.955L124.027 123.721L120.938 122.685L117.622 122.134L114.761 120.613L112.062 118.767L109.234 117.116L105.788 116.857L103.089 114.914L100.228 113.36L97.1399 112.259L93.9213 111.514L91.2229 109.604L88.3944 107.953L85.2409 107.014L82.3149 105.557L79.6165 104.132L80.1691 101.315L81.9898 98.8219L82.5424 95.7459L83.9404 93.0585L85.4684 90.4035L86.2162 87.3923L88.3294 84.9963L89.4673 82.1469L90.2801 78.9415L92.7834 76.7397L94.4415 73.9228L96.8148 71.721L99.5782 70.005L102.537 68.7422L105.268 67.0261L108.389 66.2491L111.607 66.1195L114.728 65.4072L117.979 64.8892L121.231 65.3425L124.092 67.0909L127.31 67.7061L131.211 70.0697L134.398 70.8792L137.096 72.66L139.729 74.6027L141.192 77.6787L143.403 79.9776L145.516 82.4707L146.199 85.7086L147.337 88.6874L147.402 91.9253L148.085 95.0336L147.89 98.2067L148.117 101.477L146.882 104.488L145.549 107.402L144.834 110.446L142.655 112.777L142.2 115.885L140.997 118.67L139.209 121.196L138.721 124.304L137.063 126.927L135.698 129.97Z" fill="#FF715A"/>
<path d="M136.511 132.819L132.024 129.808L128.61 129.128L125.327 127.38L123.084 125.372L120.353 124.466L116.744 123.786L113.883 122.296L110.989 120.321L108.681 118.961L105.138 118.702L102.016 116.468L99.3505 115.011L96.5546 114.04L92.8483 113.036L90.1499 111.126L87.6791 109.669L84.7531 108.795L77.5356 105.103L78.6735 100.149L80.2341 98.0124L80.8843 94.8393L83.7127 89.6588L84.5255 86.4533L86.7363 83.9601L87.7116 81.4346L88.5894 77.873L91.3203 75.477L93.1734 72.4657L95.5793 70.264L98.6028 68.3213L101.821 66.8966L104.845 65.0834L108.356 64.274L111.575 64.1444L114.371 63.4969L118.012 62.9141L122.271 63.6911L124.839 65.2453L128.35 66.0224L131.992 68.2565L135.47 69.2603L141.29 73.34L142.785 76.5454L144.768 78.6177L147.272 81.5641L148.052 85.2553L149.222 88.5903L149.287 91.7958L149.97 94.807L149.775 98.2391L150.035 101.704L147.337 107.953L146.557 111.288L144.411 113.554L143.923 116.533L142.558 119.674L141.03 121.843L140.314 125.21L138.689 127.801L136.478 132.69L136.511 132.819ZM130.073 125.599L133.812 126.408L134.885 127.153L135.34 126.149L136.901 123.656L137.421 120.483L139.339 117.763L140.347 115.4L140.867 111.935L143.11 109.539L143.826 106.658L146.199 101.218L146.004 98.3686L146.166 95.2279L145.549 92.3462L145.451 89.1083L144.411 86.4209L143.761 83.3773L139.469 78.5205L138.234 75.8979L133.617 72.6924L130.204 71.721L126.595 69.5193L123.084 68.7422L120.548 67.188L117.979 66.8319L111.997 67.9975L108.649 68.1594L105.983 68.807L103.512 70.3611L100.293 71.7858L97.79 73.3723L95.9044 75.1532L94.0187 78.2291L91.938 80.0423L91.2553 82.6974L89.7273 86.3562L87.9067 88.396L87.0614 91.4396L84.2979 96.4583L83.4527 100.02L81.8921 102.189L81.6971 103.193L86.021 105.395L89.3046 106.398L92.1331 108.05L94.669 109.831L97.5299 110.478L100.814 111.644L103.967 113.328L106.405 115.076L109.754 115.335L112.973 117.213L115.801 119.156L118.207 120.386L121.198 120.904L125.262 122.361L127.603 124.466L130.008 125.696L130.073 125.599Z" fill="#1D1D1B"/>
<path d="M144.378 79.33L143.435 76.3187L142.883 73.178L143.728 70.1344L145.126 67.2851L147.402 65.0186L150.165 63.4321L152.929 61.9103L153.904 64.9215L154.164 68.1917L153.644 71.3972L152.376 74.3113L150.425 76.9339L147.532 78.391L144.378 79.33Z" fill="#5566FF"/>
<path d="M144.378 81.2403C143.566 81.2403 142.818 80.7223 142.558 79.8804L141.615 76.8368L141.03 73.4695C140.997 73.178 140.997 72.919 141.062 72.6276L141.907 69.584L143.403 66.4109C143.5 66.2167 143.631 66.0548 143.761 65.8929L146.036 63.6264C146.036 63.6264 146.296 63.3997 146.426 63.335L151.953 60.1942C152.441 59.9028 153.059 59.8705 153.579 60.0971C154.099 60.2914 154.522 60.7447 154.684 61.2951L155.66 64.3387C155.66 64.3387 155.725 64.6301 155.757 64.792L156.017 68.0299C156.017 68.0299 156.017 68.3213 156.017 68.4832L155.53 71.6886C155.53 71.6886 155.465 72.0124 155.4 72.1419L154.099 75.056C154.099 75.056 153.969 75.315 153.872 75.4122L151.953 78.0348C151.791 78.2615 151.563 78.4558 151.271 78.6176L148.345 80.1071L144.866 81.1756C144.671 81.2403 144.508 81.2403 144.313 81.2403H144.378ZM144.866 73.2752L145.646 76.9663L147.012 76.5778L149.19 75.4445L150.718 73.3723L151.823 70.8468L152.246 68.0946L151.823 64.6625L148.572 66.5081L146.687 68.3536L145.451 70.9115L144.833 73.2104L144.866 73.2752Z" fill="#1D1D1B"/>
<path d="M144.216 81.0461L146.719 79.2653L149.71 78.1644L152.864 78.4235L155.952 79.1034L158.585 80.949L161.121 82.8917L163.235 85.4172L160.211 86.8419L157.155 88.0723L153.871 88.7846L150.588 88.2342L147.792 86.4533L145.744 83.8954L144.216 81.0461Z" fill="#5566FF"/>
<path d="M153.871 90.6949C153.871 90.6949 153.644 90.6949 153.546 90.6949L150.23 90.1445C149.97 90.1121 149.742 90.015 149.515 89.8531L146.719 88.0722C146.556 87.9751 146.394 87.8132 146.264 87.6513L144.216 85.0934L142.493 81.9203C142.037 81.0785 142.297 80.0423 143.078 79.4919L145.581 77.7111C145.581 77.7111 145.874 77.5492 146.036 77.4844L149.027 76.3836C149.287 76.2864 149.547 76.2541 149.84 76.2864L152.994 76.5131L156.375 77.2254C156.635 77.2902 156.862 77.3873 157.057 77.5168L162.292 81.3375C162.292 81.3375 162.519 81.5318 162.584 81.6289L164.698 84.1544C165.088 84.6077 165.218 85.2229 165.088 85.7734C164.958 86.3238 164.568 86.8418 164.047 87.0685L160.991 88.4932L157.838 89.7559L154.262 90.5654C154.262 90.5654 154.001 90.5978 153.839 90.5978L153.871 90.6949ZM151.271 86.4209L153.839 86.8419L156.732 86.1943L160.211 84.7049L159.821 84.2192L155.204 80.8194L152.473 80.2042L150.003 80.0423L147.629 80.9166L146.686 81.5965L147.434 82.9888L149.092 84.9963L151.303 86.4209H151.271Z" fill="#1D1D1B"/>
<path d="M77.4055 169.731L76.9828 172.58L76.6577 175.397L75.845 178.149L74.7721 180.772L73.4717 183.298L71.3584 185.143L68.7901 186.017L66.0916 185.24L63.7183 183.524L62.4504 180.934L61.5726 178.182L60.4672 175.527V172.613L59.9146 169.731L60.0771 166.849L60.6298 164L61.15 161.151L62.5154 158.593L63.7834 155.938L66.0266 154.092L68.7901 153.671L71.3909 154.319L73.4391 156.229L75.3573 158.431L75.91 161.312L76.8528 164L77.1454 166.882L77.4055 169.731Z" fill="white"/>
<path d="M68.8226 187.701L65.1489 186.535L62.4505 184.593L60.9875 181.614L60.0121 178.667L58.8418 175.494V172.58L58.2891 169.828L58.4841 166.72L59.7521 160.374L62.7756 154.675L65.3765 152.506L68.9202 151.955L72.2688 152.797L74.6421 154.999L76.9504 157.686L77.6006 160.956L78.5434 163.806L79.1286 169.763L78.3159 175.591L77.4706 178.603L76.3652 181.387L74.6096 184.528L71.9437 186.697L68.8551 187.733L68.8226 187.701ZM66.8395 183.751L68.7576 184.301L70.5457 183.686L72.1713 182.261L73.3417 180.027L74.3495 177.534L75.0973 174.944L75.78 169.666L75.2598 164.324L74.382 161.798L73.8293 159.143L72.2038 157.233L70.5782 155.743L68.6926 155.258L66.7094 155.549L65.0839 156.909L62.7106 161.636L61.7027 167.076L61.5402 169.569L62.0603 172.224V175.138L63.0682 177.534L64.011 180.383L65.0188 182.423L66.8395 183.718V183.751Z" fill="#1D1D1B"/>
<path d="M89.5321 169.731L89.7271 172.613L89.3045 175.494L88.1666 178.182L87.3863 180.934L85.6633 183.233L83.8101 185.467L81.0142 186.341L78.1207 185.564L76.3651 183.233L74.7396 180.902L73.4066 178.311L73.049 175.43L72.5288 172.613L72.6914 169.731L72.5938 166.882L73.049 164.032L73.4391 161.183L74.6745 158.528L76.2676 156.132L78.1532 153.963L81.0142 153.574L83.8101 154.027L85.9559 156.002L87.2238 158.593L88.6543 161.151L89.1745 164L89.6296 166.849L89.5321 169.731Z" fill="white"/>
<path d="M81.0468 188.025L77.1779 186.989L73.4067 181.841L71.8136 178.538L70.9033 172.742L71.0334 169.699L70.9683 166.946L71.9437 160.503L73.1791 157.88L74.8697 155.29L77.308 152.473L80.9817 151.988L84.4929 152.538L87.3539 155.323L88.6218 157.913L90.1824 160.859L91.1577 166.59L91.0927 169.699L91.2552 172.548L90.735 176.142L89.5646 178.829L88.5893 181.938L84.6555 186.892L80.9492 188.057L81.0468 188.025ZM79.0961 184.139L80.9817 184.658L82.8674 184.075L85.8909 180.254L86.6061 177.761L87.744 175.073L88.1017 172.418L87.9066 169.763L87.9716 166.817L87.0613 161.701L84.5905 156.974L83.0299 155.549L80.9492 155.225L78.9661 155.484L77.4705 157.201L76.0401 159.435L74.9997 161.636L74.2194 167.141L74.317 169.731L74.1869 172.548L74.9997 177.858L76.2026 180.189L79.1286 184.172L79.0961 184.139Z" fill="#1D1D1B"/>
<path d="M68.8226 169.731L68.335 172.645L67.3596 175.397L65.0839 177.081L62.8081 175.397L61.6702 172.677L61.4426 169.731L61.6377 166.785L62.8731 164.097L65.0839 162.446L67.3596 164.097L68.335 166.817L68.8226 169.731Z" fill="#1D1D1B"/>
<path d="M80.9491 169.731L80.6565 172.645L79.6487 175.43L77.3404 177.081L75.0321 175.43L73.9267 172.677L73.7642 169.731L73.8292 166.752L74.9671 164L77.3404 162.478L79.6487 164.065L80.8516 166.752L80.9491 169.731Z" fill="#1D1D1B"/>
<path d="M103.414 133.888L101.236 131.168L98.9604 129.938L96.8797 127.866L94.5389 126.732L92.0355 125.761L89.6297 124.271L86.8012 124.207L84.1028 123.268L80.3641 123.559L80.104 123.365L77.9907 120.775L74.5121 120.289L71.8462 119.512H68.3025L65.6366 120.321L57.6063 123.818L54.8754 125.923L53.5099 128.157L51.3967 130.262L49.9662 132.593L48.7633 134.924L46.6826 137.45L45.8373 140.072L44.7645 142.436L43.9192 145.318L47.0402 146.224L47.8205 143.569L48.8609 141.27L49.6736 138.809L51.5593 136.608L52.8272 134.179L54.0951 132.139L56.2084 130.035L57.5088 127.898L59.3619 126.603L61.8003 125.664L66.8395 123.333L69.0827 122.653L71.4235 122.717L73.8944 123.43L76.3327 123.786L76.5277 124.012L74.9347 124.304L72.1063 125.988L68.0099 130.456L67.1646 133.726L68.0749 136.996L69.928 138.907L71.2935 141.4L75.2598 142.242L78.8035 141.205L81.0143 139.813L83.6477 137.611L85.0131 134.147L82.9974 126.635H83.7127L86.2811 127.509L88.7519 127.574L90.67 128.74L95.2866 130.747L97.2698 132.722L99.448 133.92L100.748 135.669M76.2026 127.315L79.5188 126.959L79.7789 127.186L81.567 133.985L80.9167 135.669L79.0961 137.223L77.2755 138.356L75.1948 138.907L73.4392 138.55L72.4314 136.834L71.0009 135.377L70.5457 133.758L70.9684 132.107L74.3495 128.416L76.2351 127.38L76.2026 127.315Z" fill="#1D1D1B"/>
<path d="M44.51 149.157L41.0639 142.39L39.926 139.638L38.333 137.274L37 134.328L39.9585 133L41.1939 135.72L42.8845 138.245L44.0224 141.03L45.973 144.818L51.9551 142.001L54.7185 141.03L59.6927 138.925L60.9281 141.936L53.223 144.98L44.51 149.157Z" fill="#1D1D1B"/>
</g>
<defs>
<clipPath id="clip0_112_1267">
<rect width="199" height="130" fill="white" transform="translate(17 60)"/>
</clipPath>
</defs>
</svg>
