<svg width="25" height="36" viewBox="0 0 25 36" fill="none" xmlns="http://www.w3.org/2000/svg">
<path d="M4.66831 13.5921C4.86153 12.6647 5.67892 12 6.62628 12H17.4384C18.3562 12 19.1561 12.6246 19.3787 13.5149L23.1362 28.5448C24.0829 32.3317 21.2188 36 17.3153 36H7.37883C3.57294 36 0.728717 32.5022 1.50494 28.7763L4.66831 13.5921Z" fill="#5566FF"/>
<path d="M7.5 10C7.5 9.44772 7.94772 9 8.5 9H15.5C16.0523 9 16.5 9.44772 16.5 10V12H7.5V10Z" fill="#5566FF"/>
<path d="M13.1806 0.00615839L2.40766 1.00519C1.89336 1.05289 1.5 1.48441 1.5 2.00092V3C1.5 3.55228 1.94772 4 2.5 4H8.5C9.05228 4 9.5 4.44772 9.5 5V6H14.5V1.21714C14.5 0.497123 13.887 -0.0654859 13.1806 0.00615839Z" fill="#5566FF"/>
<rect x="10.5" y="6" width="3" height="3" fill="#5566FF"/>
</svg>
