<svg width="56" height="56" viewBox="0 0 56 56" fill="none" xmlns="http://www.w3.org/2000/svg">
<path d="M56 28C56 43.464 43.464 56 28 56C12.536 56 0 43.464 0 28C0 12.536 12.536 0 28 0C43.464 0 56 12.536 56 28Z" fill="#FFF8F6"/>
<path d="M21.1778 23.7868C21.3461 22.9789 22.0581 22.3999 22.8834 22.3999H33.1731C33.9725 22.3999 34.6694 22.944 34.8633 23.7196L38.5098 38.3056C39.3345 41.6044 36.8395 44.7999 33.4392 44.7999H23.2278C19.9125 44.7999 17.4348 41.7529 18.111 38.5072L21.1778 23.7868Z" fill="#FF8165"/>
<path d="M23.8 20.4711C23.8 19.99 24.1901 19.6 24.6712 19.6H31.3289C31.81 19.6 32.2 19.99 32.2 20.4711V22.4H23.8V20.4711Z" fill="#FF8165"/>
<path d="M29.1018 11.2057L18.9906 12.1434C18.5426 12.1849 18.2 12.5608 18.2 13.0108V14.0622C18.2 14.5433 18.59 14.9333 19.0711 14.9333H24.7955C25.2766 14.9333 25.6666 15.3233 25.6666 15.8044V16.8H30.3333V12.3359C30.3333 11.6639 29.7612 11.1388 29.1018 11.2057Z" fill="#FF8165"/>
<rect x="26.6001" y="16.7999" width="2.8" height="2.8" fill="#FF8165"/>
</svg>
